<svg width="17" height="17" viewBox="0 0 17 17" fill="none" xmlns="http://www.w3.org/2000/svg">
<path d="M0.0673828 5.42697H2.08419V0.0776978H4.101L7.54974 5.42697H12.1682V0.0776978H14.185V5.42697H16.2018V7.21006H14.185V8.99315H16.2018V10.7762H14.185V16.1255H12.1682L8.7094 10.7762H4.101V16.1255H2.08419V10.7762H0.0673828V8.99315H2.08419V7.21006H0.0673828V5.42697ZM4.101 5.42697H5.24049L4.101 3.67063V5.42697ZM4.101 7.21006V8.99315H7.54974L6.40016 7.21006H4.101ZM12.1682 12.5593V10.7762H11.0086L12.1682 12.5593ZM8.69932 7.21006L9.85898 8.99315H12.1682V7.21006H8.69932Z" fill="#FF8000"/>
</svg>
