<svg width="21" height="20" viewBox="0 0 21 20" fill="none" xmlns="http://www.w3.org/2000/svg">
<path d="M6.66335 19.3143C6.12677 19.3143 5.66742 19.1278 5.2853 18.7548C4.90319 18.3817 4.71213 17.9333 4.71213 17.4095C4.71213 16.8857 4.90319 16.4373 5.2853 16.0643C5.66742 15.6913 6.12677 15.5048 6.66335 15.5048C7.19994 15.5048 7.65929 15.6913 8.0414 16.0643C8.42351 16.4373 8.61457 16.8857 8.61457 17.4095C8.61457 17.9333 8.42351 18.3817 8.0414 18.7548C7.65929 19.1278 7.19994 19.3143 6.66335 19.3143ZM16.4194 19.3143C15.8829 19.3143 15.4235 19.1278 15.0414 18.7548C14.6593 18.3817 14.4682 17.9333 14.4682 17.4095C14.4682 16.8857 14.6593 16.4373 15.0414 16.0643C15.4235 15.6913 15.8829 15.5048 16.4194 15.5048C16.956 15.5048 17.4154 15.6913 17.7975 16.0643C18.1796 16.4373 18.3707 16.8857 18.3707 17.4095C18.3707 17.9333 18.1796 18.3817 17.7975 18.7548C17.4154 19.1278 16.956 19.3143 16.4194 19.3143ZM5.83408 4.07619L8.17555 8.83809H15.0048L17.6877 4.07619H5.83408ZM4.90725 2.17142H19.2975C19.6715 2.17142 19.956 2.33412 20.1512 2.65952C20.3463 2.98492 20.3544 3.31428 20.1755 3.64762L16.7121 9.74285C16.5333 10.0603 16.2934 10.3063 15.9926 10.4809C15.6918 10.6556 15.3625 10.7429 15.0048 10.7429H7.73652L6.66335 12.6476H18.3707V14.5524H6.66335C5.93164 14.5524 5.3788 14.2389 5.00482 13.6119C4.63083 12.9849 4.61457 12.3619 4.95603 11.7429L6.27311 9.40952L2.76091 2.17142H0.809692V0.266663H3.98042L4.90725 2.17142Z" fill="white"/>
</svg>
